<svg viewBox="0 0 82 24" fill="none" xmlns="http://www.w3.org/2000/svg">
<path d="M12.6816 2.36987H7.52808L0.0683594 23.3699H4.36767L6.076 18.4199L7.47114 14.3399L10.0906 6.71987L12.71 14.3399H9.08551L8.05197 18.4199H14.1336L15.8135 23.3699H20.1413L12.6816 2.36987Z" fill="url(#paint0_linear_7811_15667)"/>
<path d="M22.1914 0.27002H26.2629V23.37H22.1914V0.27002Z" fill="url(#paint1_linear_7811_15667)"/>
<path d="M29.5368 0.27002H33.5969V23.37H29.5254L29.5368 0.27002Z" fill="url(#paint2_linear_7811_15667)"/>
<path d="M52.3721 16.23H40.3568C40.6131 18.87 42.3214 20.19 44.4283 20.19C45.9943 20.19 47.361 19.44 47.9019 18.12H52.1044C50.9371 22.02 47.8051 23.73 44.4454 23.73C39.5482 23.73 36.1885 20.07 36.1885 15.15C36.1885 10.23 39.5767 6.51001 44.36 6.51001C49.5419 6.51001 52.7707 10.8 52.3721 16.23ZM40.5561 13.08H48.0443C47.5888 11.28 46.3075 10.05 44.3429 10.05C42.3783 10.05 41.0686 11.31 40.5561 13.08Z" fill="url(#paint3_linear_7811_15667)"/>
<path d="M70.7934 15.12C70.7934 20.1 67.2059 23.73 62.6219 23.73C58.0378 23.73 54.476 20.07 54.476 15.12C54.4563 13.9859 54.6534 12.8592 55.0556 11.8071C55.6614 10.2222 56.7086 8.86783 58.0592 7.92227C59.4098 6.97672 61.0005 6.48434 62.6219 6.50999C67.1489 6.50999 70.7934 10.14 70.7934 15.12ZM58.5788 15.12C58.5788 17.85 60.3441 19.65 62.6219 19.65C64.8996 19.65 66.6649 17.85 66.6649 15.12C66.6649 12.39 64.8996 10.59 62.6219 10.59C60.3441 10.59 58.5788 12.42 58.5788 15.12Z" fill="url(#paint4_linear_7811_15667)"/>
<path d="M72.7546 22.6142C72.763 22.7938 72.7203 22.9719 72.6317 23.1256C72.5432 23.2793 72.413 23.4016 72.258 23.4766C72.1029 23.5516 71.9301 23.5759 71.7617 23.5464C71.5934 23.517 71.4373 23.435 71.3136 23.3112C71.1899 23.1874 71.1043 23.0273 71.0677 22.8517C71.0311 22.6761 71.0453 22.493 71.1085 22.3259C71.1716 22.1589 71.2808 22.0157 71.422 21.9146C71.5631 21.8136 71.7298 21.7595 71.9004 21.7592C72.0106 21.7527 72.1209 21.7699 72.2245 21.81C72.3281 21.8501 72.4229 21.9121 72.5029 21.9922C72.5829 22.0723 72.6465 22.1688 72.6898 22.2757C72.7331 22.3827 72.7551 22.4979 72.7546 22.6142ZM79.306 17.8142V23.3492H77.9422V22.6052C77.7563 22.8798 77.5093 23.1022 77.2229 23.2528C76.9365 23.4034 76.6194 23.4777 76.2994 23.4692C74.9241 23.4692 73.902 22.2692 73.902 20.5802C73.902 18.8912 74.9441 17.6942 76.2908 17.6942C76.6165 17.6885 76.9384 17.7676 77.228 17.9246C77.5176 18.0817 77.7659 18.3117 77.9507 18.5942V17.8202L79.306 17.8142ZM77.9393 20.5802C77.9524 20.3857 77.9271 20.1905 77.8653 20.0067C77.8034 19.8229 77.7062 19.6546 77.5797 19.5122C77.4533 19.3698 77.3004 19.2564 77.1306 19.179C76.9608 19.1016 76.7777 19.0618 76.5926 19.0622C75.8296 19.0622 75.2658 19.6622 75.2658 20.5802C75.2658 21.4982 75.8353 22.1012 76.5926 22.1012C77.35 22.1012 77.9393 21.4982 77.9393 20.5802ZM81.9312 16.1042C81.9326 16.2208 81.9112 16.3364 81.8683 16.4439C81.8253 16.5513 81.7617 16.6482 81.6815 16.7285C81.6013 16.8088 81.5062 16.8707 81.4021 16.9104C81.2981 16.9501 81.1874 16.9667 81.077 16.9592C80.967 16.9661 80.8567 16.9492 80.7531 16.9096C80.6495 16.87 80.5547 16.8084 80.4745 16.7288C80.3942 16.6491 80.3303 16.553 80.2866 16.4464C80.243 16.3398 80.2204 16.2248 80.2204 16.1087C80.2204 15.9926 80.243 15.8776 80.2866 15.771C80.3303 15.6644 80.3942 15.5683 80.4745 15.4886C80.5547 15.409 80.6495 15.3475 80.7531 15.3078C80.8567 15.2682 80.967 15.2513 81.077 15.2582C81.1868 15.25 81.2971 15.2658 81.4008 15.3047C81.5046 15.3436 81.5996 15.4047 81.6798 15.4842C81.76 15.5637 81.8238 15.6598 81.8671 15.7665C81.9103 15.8732 81.9321 15.9882 81.9312 16.1042ZM80.3936 17.8142H81.7603V23.3492H80.3936V17.8142Z" fill="#11A173"/>
<defs>
<linearGradient id="paint0_linear_7811_15667" x1="-23.9565" y1="21.7799" x2="117.551" y2="-8.27057" gradientUnits="userSpaceOnUse">
<stop stop-color="#047547"/>
<stop offset="1" stop-color="#19BC8E"/>
</linearGradient>
<linearGradient id="paint1_linear_7811_15667" x1="1743.84" y1="11250.9" x2="3855.47" y2="11167.6" gradientUnits="userSpaceOnUse">
<stop stop-color="#047547"/>
<stop offset="1" stop-color="#19BC8E"/>
</linearGradient>
<linearGradient id="paint2_linear_7811_15667" x1="1756.18" y1="11377.9" x2="3867.83" y2="11294.7" gradientUnits="userSpaceOnUse">
<stop stop-color="#047547"/>
<stop offset="1" stop-color="#19BC8E"/>
</linearGradient>
<linearGradient id="paint3_linear_7811_15667" x1="6986.37" y1="8834.34" x2="15052" y2="7134.88" gradientUnits="userSpaceOnUse">
<stop stop-color="#047547"/>
<stop offset="1" stop-color="#19BC8E"/>
</linearGradient>
<linearGradient id="paint4_linear_7811_15667" x1="7098.15" y1="9069.21" x2="15210.1" y2="7349.32" gradientUnits="userSpaceOnUse">
<stop stop-color="#047547"/>
<stop offset="1" stop-color="#19BC8E"/>
</linearGradient>
</defs>
</svg>
